<?xml version="1.0" encoding="UTF-8"?><svg id="a" xmlns="http://www.w3.org/2000/svg" viewBox="0 0 695.75 287.2"><defs><style>.b,.c{fill:#f9b000;}.d{fill:#5f5f5f;}.e{fill:#5e5f5f;}.c{fill-rule:evenodd;}</style></defs><g><path class="b" d="M43.99,237.41v24.35c0,.87-.47,1.26-1.26,1.26h-9.3c-.79,0-1.18-.39-1.18-1.26v-21.35c0-11.27-1.18-11.82-8.43-11.82h-7.17v33.17c0,.87-.39,1.26-1.18,1.26H6.09c-.79,0-1.18-.39-1.18-1.26v-40.74c0-.94,.39-1.02,1.18-1.18,5.28-1.18,12.92-1.34,18.83-1.34,15.13,0,19.07,2.84,19.07,18.91Z"/><path class="b" d="M110.65,240.4v2.44c0,1.58-.47,2.13-2.52,2.13h-24.74c.16,7.09,2.05,8.35,8.9,8.35h13.95c.79,0,1.18,.39,1.18,1.18v6.54c0,.87-.39,1.18-1.1,1.26-4.18,.87-9.85,1.1-15.05,1.1-15.92,0-19.78-4.49-19.78-22.46s3.86-22.46,19.78-22.46,19.3,4.33,19.38,21.91Zm-27.34-3.07h15.6c-.08-6.93-1.89-8.75-7.64-8.75s-7.88,1.81-7.96,8.75Z"/><path class="b" d="M199.53,218.89c.79,0,1.02,.24,.95,1.1l-6.78,35.54c-1.34,7.01-3.55,7.88-10.8,7.88-9.06,0-10.01-.87-11.58-7.88l-3.86-17.49-3.86,17.49c-1.5,7.01-2.52,7.88-11.5,7.88-7.33,0-9.46-.87-10.87-7.88l-6.7-35.54c-.16-.87,.16-1.1,.95-1.1h10.01c.47,0,.71,.24,.87,1.1l5.44,32.15c.32,1.34,.55,1.5,1.26,1.5,.87,0,1.02-.16,1.26-1.5l7.33-30.81c.24-.87,.63-1.1,1.26-1.1h9.22c.55,0,1.02,.24,1.18,1.1l7.33,30.81c.32,1.34,.47,1.5,1.26,1.5,.71,0,1.02-.16,1.34-1.5l5.44-32.15c.16-.87,.32-1.1,.87-1.1h10.01Z"/><path class="b" d="M313.37,235.2l-.08,26.55c0,.87-.39,1.26-1.18,1.26h-9.3c-.79,0-1.18-.39-1.18-1.26v-21.35c0-11.27-1.18-11.82-7.49-11.82-2.13,0-4.41,.16-6.38,.47,.71,2.13,1.02,4.81,1.02,8.35l-.08,24.35c0,.87-.32,1.26-1.1,1.26h-9.38c-.79,0-1.1-.39-1.1-1.26v-24.03c-.08-8.75-1.5-9.14-7.56-9.14h-5.36v33.17c0,.87-.39,1.26-1.18,1.26h-9.3c-.79,0-1.18-.39-1.18-1.26v-40.74c0-.87,.32-1.02,1.02-1.18,4.33-.94,11.03-1.34,15.13-1.34,6.07,0,11.19,1.1,14.1,2.52,4.33-1.65,9.69-2.6,13.71-2.6,12.29,0,16.86,3.47,16.86,16.78Z"/><path class="b" d="M381.84,240.95c0,17.97-3.7,22.46-20.09,22.46s-20.09-4.49-20.09-22.46,3.78-22.46,20.09-22.46,20.09,4.41,20.09,22.46Zm-28.44,0c0,9.93,1.18,12.37,8.35,12.37s8.43-2.44,8.43-12.37-1.18-12.37-8.43-12.37-8.35,2.44-8.35,12.37Z"/><path class="b" d="M419.26,204.39c.87,0,1.18,.39,1.18,1.26v13.32c2.92-.32,6.07-.47,9.69-.47,14.34,0,18.12,5.04,18.12,22.54s-3.86,22.38-20.49,22.38c-5.44,0-10.87-.47-17.33-1.5-1.02-.16-1.65-.79-1.65-1.97v-54.29c0-.87,.32-1.26,1.18-1.26h9.3Zm1.18,24.27v24.11c2.36,.39,5.67,.55,7.56,.55,7.96,0,8.51-3.15,8.51-12.37,0-10.16-1.02-12.29-8.98-12.29h-7.09Z"/><path class="b" d="M485.68,217.31c.79,0,1.18,.39,1.18,1.18v43.26c0,.87-.39,1.26-1.18,1.26h-9.3c-.79,0-1.18-.39-1.18-1.26v-43.26c0-.79,.39-1.18,1.18-1.18h9.3Z"/><path class="b" d="M525.7,204.39c.79,0,1.18,.39,1.18,1.18v56.18c0,.87-.39,1.26-1.18,1.26h-9.3c-.79,0-1.18-.39-1.18-1.26v-56.18c0-.79,.39-1.18,1.18-1.18h9.3Z"/><path class="b" d="M565.73,217.31c.79,0,1.18,.39,1.18,1.18v43.26c0,.87-.39,1.26-1.18,1.26h-9.3c-.79,0-1.18-.39-1.18-1.26v-43.26c0-.79,.39-1.18,1.18-1.18h9.3Z"/><path class="b" d="M608.43,206.68c.79-.24,1.26,.31,1.26,1.18v11.27h7.25c.87,0,1.34,.39,1.34,1.18v6.3c0,.79-.47,1.18-1.34,1.18h-7.25v21.51c0,3.39,1.18,4.02,4.65,4.02h3.23c.95,0,1.34,.32,1.34,1.18v6.7c0,.95-.39,1.34-1.26,1.5-2.76,.55-4.96,.71-6.7,.71-6.78,0-12.92-.24-12.92-10.16v-25.45h-4.65c-.87,0-1.26-.39-1.26-1.18v-6.3c0-.79,.39-1.18,1.26-1.18h4.65v-8.75c0-.79,.32-1.1,1.1-1.26l9.3-2.44Z"/><path class="b" d="M683.28,218.89c.79,0,1.18,.39,1.18,1.18v42c0,12.96-2.36,25.14-19.3,25.14-5.67,0-10.32-.32-14.81-1.1-.71-.08-1.1-.39-1.1-1.26v-5.99c0-.87,.32-1.18,1.1-1.18h13.79c6.93,0,8.59-5.14,8.59-14.66v-.47c-3.39,.63-6.3,.87-9.61,.87-14.34,0-18.6-5.52-18.6-20.33v-23.01c0-.79,.39-1.18,1.18-1.18h9.38c.79,0,1.18,.39,1.18,1.18v20.8c0,10.16,1.5,12.37,9.46,12.37,1.97,0,4.81-.08,7.01-.47v-32.7c0-.79,.39-1.18,1.18-1.18h9.38Z"/></g><g><path class="e" d="M269.09,78.34h-16.55V14.92h16.55v63.43Z"/><path class="e" d="M301.06,14.92h16.55v4.52c4.85-2.43,11.25-5.18,16.66-5.18h3.09c13.9,0,20.96,3.53,20.96,18.86v45.23h-16.55V34.77c0-5.41-2.21-6.95-7.61-6.95h-2.54c-4.19,0-9.05,1.99-14.01,3.2v47.32h-16.55V14.92Z"/><path class="e" d="M442.37,27.82h-27.69c-4.41,0-6.18,0-6.18,2.76v1.99c0,2.65,.88,2.98,2.76,3.31l16.88,3.09c11.8,2.21,18.42,3.2,18.42,16.22v4.52c0,14.34-7.61,19.3-21.95,19.19-17.65,0-33.31-1.77-33.31-1.77l.11-12.02h30.22c6.62,0,9.38-1.21,9.38-5.52v-2.21c0-2.1-.66-3.2-5.63-4.19l-21.73-3.97c-7.61-1.54-11.58-3.75-11.58-13.68v-4.63c0-14.34,7.17-16.66,21.51-16.55,17.54,0,28.79,.99,28.79,.99v12.46Z"/><path class="e" d="M531.76,77.02s-14.34,1.76-31.77,1.76c-14.34,.11-21.51-3.75-21.51-19.3v-24.6c0-11.8,8.05-20.19,22.39-20.19h13.9c14.34,0,21.51,8.38,21.51,20.19v16.4c0,1.1-.11,1.43-1.1,1.43h-40.15v5.44c0,7.06,1.32,7.5,7.61,7.5h29.34l-.22,11.36Zm-11.47-39.93c0-8.6-2.65-9.6-8.6-9.6h-7.17c-6.07,0-9.49,.66-9.49,9.6v3.83l25.26-.33v-3.5Z"/><path class="e" d="M568.62,14.92h16.55v5.41c4.85-2.76,11.25-5.96,16.66-5.96h7.06v14.67h-9.71c-4.19,0-9.04,1.43-14.01,3.53v45.78h-16.55V14.92Z"/><path class="e" d="M638.31,14.81h15.13V1.13h16.55V14.92h16.99v13.68h-16.99v30.89c0,4.08,1.43,5.74,5.29,5.74,.99,0,12.46-.22,12.46-.22l-.22,11.47s-11.47,2.32-18.53,2.32c-13.02,0-15.55-7.83-15.55-17.54V28.59h-15.13V14.81Z"/><g><path class="e" d="M252.54,109.86h56.7v14.34h-39.71v16.33h34.3v14.78h-34.3v16.66h39.49v15.11h-56.48V109.86Z"/><path class="e" d="M330.31,109.86h56.7v14.78h-39.71v17.54h33.53v14.78h-33.53v30.11h-16.99V109.86Z"/><path class="e" d="M405.2,109.86h56.7v14.78h-39.71v17.54h33.53v14.78h-33.53v30.11h-16.99V109.86Z"/><path class="e" d="M480.1,109.86h56.7v14.34h-39.71v16.33h34.31v14.78h-34.31v16.66h39.49v15.11h-56.48V109.86Z"/><path class="e" d="M614.34,124.31h-31.11c-6.73,0-9.82,2.65-9.82,8.71v30c0,6.18,3.09,9.6,9.82,9.6h31.11l.11,13.68s-19.19,1.32-37.39,1.32c-14.23,.11-21.4-9.93-21.4-21.84v-35.52c0-11.91,7.17-21.07,21.4-20.96,19.86,0,37.39,.99,37.39,.99l-.11,14.01Z"/><path class="e" d="M695.75,124.2h-24.49v62.87h-16.99v-62.87h-24.6v-14.34h66.07v14.34Z"/></g></g><path class="d" d="M43.81,169.21c-.69,.18-1.64,.47-2.63,.83-.99,.36-2.04,.78-3.1,1.24-2.13,.93-4.3,1.99-6.47,3.13-2.16,1.13-4.33,2.34-6.46,3.58-1.07,.62-2.13,1.26-3.17,1.9l-1.54,.96c-.48,.31-1.02,.66-1.31,.9h0l-2.9,.85c-5.21,1.53-10.67-1.46-12.2-6.67-.37-1.26-.47-2.59-.34-3.83l.22-2c.02-.19,.04-.3,.06-.41l.06-.33,.11-.67,.43-2.63,.83-5.11c.54-3.4,1.05-6.78,1.51-10.17,.94-6.78,1.73-13.56,2.42-20.35,1.35-13.58,2.17-27.18,2.64-40.75,.23-6.79,.3-13.55,.25-20.3-.06-3.36-.15-6.75-.27-10.06-.1-1.61-.17-3.22-.3-4.83-.16-1.61-.31-3.22-.51-4.83-.81-6.43-2.09-12.82-3.81-19.1-.85-3.14-1.82-6.25-2.9-9.29-.53-1.53-1.1-3.04-1.7-4.52-.29-.75-.6-1.47-.91-2.2-.3-.69-.66-1.48-.9-1.97C-1.23,8.29,.53,3.06,4.83,.91,7.67-.5,10.91-.22,13.4,1.37l.65,.42h0c2.33,2.07,4.9,4.22,7.41,6.27,2.53,2.06,5.1,4.07,7.69,6.02,2.6,1.94,5.23,3.81,7.89,5.55,2.65,1.71,5.39,3.34,8,4.47l.19,.08c2.28,.99,3.33,3.64,2.34,5.93-.86,1.98-2.96,3.02-4.99,2.63-3.8-.74-7.16-1.9-10.49-3.13-3.3-1.25-6.51-2.62-9.67-4.05-3.15-1.44-6.26-2.94-9.34-4.49-3.1-1.57-6.08-3.12-9.22-4.88h0L16.99,5.36c.45,1.08,.73,1.88,1.07,2.78,.31,.87,.63,1.75,.92,2.62,.59,1.74,1.15,3.47,1.68,5.21,1.06,3.47,1.98,6.97,2.83,10.49,1.65,7.04,2.93,14.16,3.69,21.38,.2,1.8,.3,3.62,.47,5.43,.13,1.81,.19,3.64,.29,5.45,.09,3.55,.15,7.02,.18,10.53,.02,6.98-.03,13.95-.21,20.89-.3,13.89-1.01,27.71-1.61,41.53-.32,6.91-.6,13.82-.85,20.72-.13,3.45-.22,6.91-.3,10.35-.05,1.73-.07,3.44-.09,5.14-.02,.87-.02,1.68,0,2.5v.92c0,.11,0,.21,.02,.24,.03,.19,.06,.38,.07,.57l-15.44-9.64h0c.87-.32,1.51-.51,2.2-.72l2.01-.59c1.33-.38,2.66-.74,3.98-1.08,2.66-.69,5.32-1.32,8.04-1.89,2.71-.57,5.47-1.07,8.34-1.46,1.44-.19,2.91-.35,4.46-.44,1.56-.09,3.17-.13,5.07,.03,3.54,.3,6.16,3.42,5.85,6.96-.24,2.77-2.2,4.98-4.74,5.66l-1.11,.29Z"/><path class="d" d="M96.5,131.53c2.6-.81,5.17-1.68,7.75-2.53,2.58-.85,5.16-1.7,7.72-2.59,5.13-1.76,10.3-3.44,15.42-5.24,5.13-1.77,10.3-3.48,15.45-5.2,5.15-1.74,10.31-3.44,15.48-5.09,5.17-1.66,10.36-3.25,15.55-4.81l15.52-4.72c10.35-3.09,20.64-6.23,30.9-9.5l.37,9.39c-10.68-2.6-21.36-5.21-32.05-7.97-5.34-1.38-10.67-2.85-16-4.36-5.33-1.49-10.65-3.08-15.94-4.73-10.59-3.34-21.05-7.08-31.45-10.9-10.4-3.82-20.71-7.8-31.05-11.66-4.53-1.69-6.84-6.73-5.15-11.26s6.73-6.84,11.26-5.15c.35,.13,.69,.28,1.01,.45l.05,.03c9.65,5.13,19.41,9.96,29.27,14.5,9.87,4.53,19.87,8.66,30.02,12.44,5.08,1.87,10.18,3.7,15.32,5.42,5.15,1.72,10.34,3.33,15.55,4.9,10.42,3.16,20.95,6.04,31.53,8.79,2.62,.68,4.2,3.36,3.52,5.98-.42,1.63-1.62,2.86-3.09,3.39l-.06,.02c-10.18,3.58-20.35,7.18-30.46,10.89-5.05,1.86-10.1,3.69-15.11,5.6-5.01,1.93-10,3.88-14.96,5.89-4.97,2-9.9,4.05-14.83,6.13-4.92,2.11-9.79,4.32-14.67,6.54-4.89,2.2-9.71,4.55-14.53,6.91-2.42,1.17-4.82,2.35-7.21,3.6-2.39,1.23-4.79,2.45-7.16,3.72l-.04,.02c-5.01,2.69-11.25,.8-13.94-4.21-2.69-5.01-.8-11.25,4.21-13.94,.56-.3,1.2-.56,1.79-.75Z"/><path class="c" d="M194.24,32.88c-19.82-21.15-38.95-27.25-49.84-28.15-2.12-.42-4.25-.76-6.4-1.01-9.78-1.22-19.84-.42-29.35,1.99-9.54,2.36-18.58,6.51-26.57,12.06-8.04,5.5-15.03,12.38-20.92,20.05-5.86,7.71-10.54,16.3-13.87,25.41-1.68,4.55-3,9.23-4.01,13.98-.97,4.76-1.6,9.6-1.87,14.45-.29,4.87-.16,9.71,.29,14.56,.44,4.84,1.21,9.66,2.38,14.39,2.29,9.47,6.06,18.61,11.13,26.99,5.07,8.38,11.46,16.02,19.03,22.4,7.57,6.36,16.32,11.48,25.84,14.62,4.75,1.57,9.67,2.67,14.64,3.23,2.48,.29,4.98,.44,7.48,.48h1.87l1.81-.08c1.21-.06,2.42-.11,3.62-.23,9.66-.76,19.23-3.22,28.06-7.19,8.82-4,16.9-9.52,23.65-16.31,3.37-3.4,6.46-7.06,9.08-11.09,2.65-4,4.89-8.29,6.33-13.15,.55-1.86-.32-3.89-2.12-4.75-1.99-.94-4.37-.08-5.31,1.91l-.06,.14c-1.64,3.48-4.07,6.84-6.73,9.93-2.68,3.09-5.68,5.94-8.87,8.5-3.23,2.53-6.6,4.85-10.17,6.82-3.56,1.98-7.29,3.59-11.08,4.97-7.6,2.74-15.62,4.04-23.67,4.24-1,.05-2.02,.02-3.02,.01l-1.51-.02-1.46-.05c-1.94-.09-3.87-.27-5.78-.54-3.83-.55-7.59-1.51-11.23-2.83-7.28-2.62-14.06-6.71-19.96-11.89-5.9-5.19-10.93-11.43-14.9-18.32-7.92-13.8-11.83-29.93-11.41-45.99,.09-4.01,.48-8.01,1.14-11.97,.65-3.96,1.57-7.89,2.79-11.72,2.42-7.68,6-15.01,10.59-21.65,4.57-6.65,10.26-12.51,16.75-17.21,3.24-2.35,6.71-4.37,10.32-6.05,3.61-1.68,7.35-3.06,11.21-3.95,15.48-3.62,31.99,.27,45.46,8.18,6.75,3.96,12.86,8.9,17.8,14.67,1.25,1.43,2.38,2.95,3.49,4.46l3.34,4.57c1.08,1.55,2.24,3.11,3.36,4.73,1.19,1.61,2.3,3.29,3.72,5.02l.38,.46c.81,.98,1.96,1.68,3.32,1.89,2.45,.38,4.76-.95,5.74-3.09,4.17-3.86,7.93-14.65-4.47-27.88Z"/><ellipse class="b" cx="193.48" cy="50.32" rx="9.03" ry="13.3"/></svg>